<?xml version="1.0" encoding="utf-8"?>
<!-- Generator: Adobe Illustrator 18.1.1, SVG Export Plug-In . SVG Version: 6.00 Build 0)  -->
<svg version="1.1" id="Layer_1" xmlns="http://www.w3.org/2000/svg" xmlns:xlink="http://www.w3.org/1999/xlink" x="0px" y="0px"
	 viewBox="0 0 134.7 87.6" enable-background="new 0 0 134.7 87.6" xml:space="preserve">
<g>
	<rect x="0" y="8" fill="#FFFFFF" width="134.7" height="79.6"/>
	<g>
		<path fill="#121212" d="M68.4,42.2c-1.7,0-3.1-1.4-3.1-3.1s1.4-3.1,3.1-3.1c1.7,0,3.1,1.4,3.1,3.1S70.2,42.2,68.4,42.2z
			 M68.4,36.5c-1.4,0-2.6,1.2-2.6,2.6s1.2,2.6,2.6,2.6s2.6-1.2,2.6-2.6S69.9,36.5,68.4,36.5z"/>
	</g>
	<g>
		<path fill="#121212" d="M86,42.2c-1.7,0-3.1-1.4-3.1-3.1S84.3,36,86,36c1.7,0,3.1,1.4,3.1,3.1S87.7,42.2,86,42.2z M86,36.5
			c-1.4,0-2.6,1.2-2.6,2.6s1.2,2.6,2.6,2.6s2.6-1.2,2.6-2.6S87.5,36.5,86,36.5z"/>
	</g>
	<g>
		<path fill="#121212" d="M103.6,42.2c-1.7,0-3.1-1.4-3.1-3.1s1.4-3.1,3.1-3.1s3.1,1.4,3.1,3.1S105.3,42.2,103.6,42.2z M103.6,36.5
			c-1.4,0-2.6,1.2-2.6,2.6s1.2,2.6,2.6,2.6s2.6-1.2,2.6-2.6S105,36.5,103.6,36.5z"/>
	</g>
	<g>
		<path fill="#121212" d="M121.1,42.2c-1.7,0-3.1-1.4-3.1-3.1s1.4-3.1,3.1-3.1s3.1,1.4,3.1,3.1S122.9,42.2,121.1,42.2z M121.1,36.5
			c-1.4,0-2.6,1.2-2.6,2.6s1.2,2.6,2.6,2.6s2.6-1.2,2.6-2.6S122.6,36.5,121.1,36.5z"/>
	</g>
	<g>
		<path fill="#121212" d="M15.7,53.3c-1.7,0-3.1-1.4-3.1-3.1s1.4-3.1,3.1-3.1c1.7,0,3.1,1.4,3.1,3.1S17.5,53.3,15.7,53.3z
			 M15.7,47.6c-1.4,0-2.6,1.2-2.6,2.6s1.2,2.6,2.6,2.6s2.6-1.2,2.6-2.6S17.2,47.6,15.7,47.6z"/>
	</g>
	<g>
		<path fill="#121212" d="M33.3,53.3c-1.7,0-3.1-1.4-3.1-3.1s1.4-3.1,3.1-3.1s3.1,1.4,3.1,3.1S35,53.3,33.3,53.3z M33.3,47.6
			c-1.4,0-2.6,1.2-2.6,2.6s1.2,2.6,2.6,2.6s2.6-1.2,2.6-2.6S34.8,47.6,33.3,47.6z"/>
	</g>
	<g>
		<path fill="#121212" d="M50.9,53.3c-1.7,0-3.1-1.4-3.1-3.1s1.4-3.1,3.1-3.1s3.1,1.4,3.1,3.1S52.6,53.3,50.9,53.3z M50.9,47.6
			c-1.4,0-2.6,1.2-2.6,2.6s1.2,2.6,2.6,2.6s2.6-1.2,2.6-2.6S52.3,47.6,50.9,47.6z"/>
	</g>
	<g>
		<path fill="#121212" d="M68.4,53.3c-1.7,0-3.1-1.4-3.1-3.1s1.4-3.1,3.1-3.1c1.7,0,3.1,1.4,3.1,3.1S70.2,53.3,68.4,53.3z
			 M68.4,47.6c-1.4,0-2.6,1.2-2.6,2.6s1.2,2.6,2.6,2.6s2.6-1.2,2.6-2.6S69.9,47.6,68.4,47.6z"/>
	</g>
	<g>
		<path fill="#121212" d="M86,53.3c-1.7,0-3.1-1.4-3.1-3.1s1.4-3.1,3.1-3.1c1.7,0,3.1,1.4,3.1,3.1S87.7,53.3,86,53.3z M86,47.6
			c-1.4,0-2.6,1.2-2.6,2.6s1.2,2.6,2.6,2.6s2.6-1.2,2.6-2.6S87.5,47.6,86,47.6z"/>
	</g>
	<circle fill="#DD2027" stroke="#DE1F26" stroke-miterlimit="10" cx="103.6" cy="50.2" r="2.9"/>
	<g>
		<path fill="#121212" d="M121.1,53.3c-1.7,0-3.1-1.4-3.1-3.1s1.4-3.1,3.1-3.1s3.1,1.4,3.1,3.1S122.9,53.3,121.1,53.3z M121.1,47.6
			c-1.4,0-2.6,1.2-2.6,2.6s1.2,2.6,2.6,2.6s2.6-1.2,2.6-2.6S122.6,47.6,121.1,47.6z"/>
	</g>
	<g>
		<path fill="#121212" d="M15.7,64c-1.7,0-3.1-1.4-3.1-3.1s1.4-3.1,3.1-3.1c1.7,0,3.1,1.4,3.1,3.1S17.5,64,15.7,64z M15.7,58.2
			c-1.4,0-2.6,1.2-2.6,2.6s1.2,2.6,2.6,2.6s2.6-1.2,2.6-2.6S17.2,58.2,15.7,58.2z"/>
	</g>
	<g>
		<path fill="#121212" d="M33.3,64c-1.7,0-3.1-1.4-3.1-3.1s1.4-3.1,3.1-3.1s3.1,1.4,3.1,3.1S35,64,33.3,64z M33.3,58.2
			c-1.4,0-2.6,1.2-2.6,2.6s1.2,2.6,2.6,2.6s2.6-1.2,2.6-2.6S34.8,58.2,33.3,58.2z"/>
	</g>
	<g>
		<path fill="#121212" d="M50.9,64c-1.7,0-3.1-1.4-3.1-3.1s1.4-3.1,3.1-3.1s3.1,1.4,3.1,3.1S52.6,64,50.9,64z M50.9,58.2
			c-1.4,0-2.6,1.2-2.6,2.6s1.2,2.6,2.6,2.6s2.6-1.2,2.6-2.6S52.3,58.2,50.9,58.2z"/>
	</g>
	<g>
		<path fill="#121212" d="M68.4,64c-1.7,0-3.1-1.4-3.1-3.1s1.4-3.1,3.1-3.1c1.7,0,3.1,1.4,3.1,3.1S70.2,64,68.4,64z M68.4,58.2
			c-1.4,0-2.6,1.2-2.6,2.6s1.2,2.6,2.6,2.6s2.6-1.2,2.6-2.6S69.9,58.2,68.4,58.2z"/>
	</g>
	<g>
		<path fill="#121212" d="M86,64c-1.7,0-3.1-1.4-3.1-3.1s1.4-3.1,3.1-3.1c1.7,0,3.1,1.4,3.1,3.1S87.7,64,86,64z M86,58.2
			c-1.4,0-2.6,1.2-2.6,2.6s1.2,2.6,2.6,2.6s2.6-1.2,2.6-2.6S87.5,58.2,86,58.2z"/>
	</g>
	<g>
		<path fill="#121212" d="M103.6,64c-1.7,0-3.1-1.4-3.1-3.1s1.4-3.1,3.1-3.1s3.1,1.4,3.1,3.1S105.3,64,103.6,64z M103.6,58.2
			c-1.4,0-2.6,1.2-2.6,2.6s1.2,2.6,2.6,2.6s2.6-1.2,2.6-2.6S105,58.2,103.6,58.2z"/>
	</g>
	<g>
		<path fill="#121212" d="M121.1,64c-1.7,0-3.1-1.4-3.1-3.1s1.4-3.1,3.1-3.1s3.1,1.4,3.1,3.1S122.9,64,121.1,64z M121.1,58.2
			c-1.4,0-2.6,1.2-2.6,2.6s1.2,2.6,2.6,2.6s2.6-1.2,2.6-2.6S122.6,58.2,121.1,58.2z"/>
	</g>
	<g>
		<path fill="#121212" d="M15.7,74.8c-1.7,0-3.1-1.4-3.1-3.1s1.4-3.1,3.1-3.1c1.7,0,3.1,1.4,3.1,3.1S17.5,74.8,15.7,74.8z
			 M15.7,69.1c-1.4,0-2.6,1.2-2.6,2.6s1.2,2.6,2.6,2.6s2.6-1.2,2.6-2.6S17.2,69.1,15.7,69.1z"/>
	</g>
	<g>
		<path fill="#121212" d="M33.3,74.8c-1.7,0-3.1-1.4-3.1-3.1s1.4-3.1,3.1-3.1s3.1,1.4,3.1,3.1S35,74.8,33.3,74.8z M33.3,69.1
			c-1.4,0-2.6,1.2-2.6,2.6s1.2,2.6,2.6,2.6s2.6-1.2,2.6-2.6S34.8,69.1,33.3,69.1z"/>
	</g>
	<g>
		<path fill="#121212" d="M50.9,74.8c-1.7,0-3.1-1.4-3.1-3.1s1.4-3.1,3.1-3.1S54,70,54,71.7S52.6,74.8,50.9,74.8z M50.9,69.1
			c-1.4,0-2.6,1.2-2.6,2.6s1.2,2.6,2.6,2.6s2.6-1.2,2.6-2.6S52.3,69.1,50.9,69.1z"/>
	</g>
	<g>
		<path fill="#121212" d="M68.4,74.8c-1.7,0-3.1-1.4-3.1-3.1s1.4-3.1,3.1-3.1c1.7,0,3.1,1.4,3.1,3.1S70.2,74.8,68.4,74.8z
			 M68.4,69.1c-1.4,0-2.6,1.2-2.6,2.6s1.2,2.6,2.6,2.6s2.6-1.2,2.6-2.6S69.9,69.1,68.4,69.1z"/>
	</g>
	<g>
		<path fill="#121212" d="M86.4,74.8c-1.7,0-3.1-1.4-3.1-3.1s1.4-3.1,3.1-3.1c1.7,0,3.1,1.4,3.1,3.1S88.2,74.8,86.4,74.8z
			 M86.4,69.1c-1.4,0-2.6,1.2-2.6,2.6s1.2,2.6,2.6,2.6s2.6-1.2,2.6-2.6S87.9,69.1,86.4,69.1z"/>
	</g>
	<text transform="matrix(1 0 0 1 106.5233 25.4657)" font-family="'BebasNeue'" font-size="10.0139">2015</text>
	<text transform="matrix(1 0 0 1 12.6334 25.4657)" font-family="'BebasNeue'" font-size="10.0139">May</text>
	<g>
		<path d="M5.1,10.8H3.7c-0.4,0-0.7-0.3-0.7-0.7V0.7C3,0.3,3.3,0,3.7,0l1.4,0c0.4,0,0.7,0.3,0.7,0.7v9.5C5.8,10.5,5.4,10.8,5.1,10.8
			z"/>
		<path d="M12,10.8h-1.4c-0.4,0-0.7-0.3-0.7-0.7V0.7c0-0.4,0.3-0.7,0.7-0.7L12,0c0.4,0,0.7,0.3,0.7,0.7v9.5
			C12.6,10.5,12.3,10.8,12,10.8z"/>
		<path d="M18.8,10.8h-1.4c-0.4,0-0.7-0.3-0.7-0.7V0.7c0-0.4,0.3-0.7,0.7-0.7l1.4,0c0.4,0,0.7,0.3,0.7,0.7v9.5
			C19.5,10.5,19.2,10.8,18.8,10.8z"/>
		<path d="M25.7,10.8h-1.4c-0.4,0-0.7-0.3-0.7-0.7V0.7C23.7,0.3,24,0,24.4,0l1.4,0c0.4,0,0.7,0.3,0.7,0.7v9.5
			C26.4,10.5,26.1,10.8,25.7,10.8z"/>
		<path d="M32.6,10.8h-1.3c-0.4,0-0.7-0.3-0.7-0.7V0.7c0-0.4,0.3-0.7,0.7-0.7l1.3,0c0.4,0,0.7,0.3,0.7,0.7v9.5
			C33.3,10.5,33,10.8,32.6,10.8z"/>
		<path d="M37.5,0.7c0-0.4,0.3-0.7,0.7-0.7l1.3,0c0.4,0,0.7,0.3,0.7,0.7v9.5c0,0.4-0.3,0.7-0.7,0.7h-1.3c-0.4,0-0.7-0.3-0.7-0.7"/>
		<path d="M46.4,10.8h-1.2c-0.4,0-0.7-0.3-0.7-0.7V0.7c0-0.4,0.3-0.7,0.7-0.7l1.2,0C46.7,0,47,0.3,47,0.7v9.5
			C47,10.5,46.7,10.8,46.4,10.8z"/>
		<path d="M53.2,10.8H52c-0.4,0-0.7-0.3-0.7-0.7V0.7C51.3,0.3,51.7,0,52,0l1.2,0c0.4,0,0.7,0.3,0.7,0.7v9.5
			C53.9,10.5,53.6,10.8,53.2,10.8z"/>
		<path d="M60.1,10.8h-1.2c-0.4,0-0.7-0.3-0.7-0.7V0.7c0-0.4,0.3-0.7,0.7-0.7l1.2,0c0.4,0,0.7,0.3,0.7,0.7v9.5
			C60.8,10.5,60.5,10.8,60.1,10.8z"/>
		<path d="M67,10.8h-1.2c-0.4,0-0.7-0.3-0.7-0.7V0.7c0-0.4,0.3-0.7,0.7-0.7L67,0c0.4,0,0.7,0.3,0.7,0.7v9.5
			C67.7,10.5,67.4,10.8,67,10.8z"/>
		<path d="M73.9,10.8h-1.2c-0.4,0-0.7-0.3-0.7-0.7V0.7c0-0.4,0.3-0.7,0.7-0.7l1.2,0c0.4,0,0.7,0.3,0.7,0.7v9.5
			C74.6,10.5,74.3,10.8,73.9,10.8z"/>
		<path d="M80.8,10.8h-1.1c-0.4,0-0.7-0.3-0.7-0.7V0.7C79,0.3,79.3,0,79.7,0l1.1,0c0.4,0,0.7,0.3,0.7,0.7v9.5
			C81.5,10.5,81.2,10.8,80.8,10.8z"/>
		<path d="M87.7,10.8h-1.1c-0.4,0-0.7-0.3-0.7-0.7V0.7c0-0.4,0.3-0.7,0.7-0.7l1.1,0c0.4,0,0.7,0.3,0.7,0.7v9.5
			C88.4,10.5,88.1,10.8,87.7,10.8z"/>
		<path d="M94.6,10.8h-1.1c-0.4,0-0.7-0.3-0.7-0.7V0.7c0-0.4,0.3-0.7,0.7-0.7l1.1,0c0.4,0,0.7,0.3,0.7,0.7v9.5
			C95.2,10.5,94.9,10.8,94.6,10.8z"/>
		<path d="M101.5,10.8h-1.1c-0.4,0-0.7-0.3-0.7-0.7V0.7c0-0.4,0.3-0.7,0.7-0.7l1.1,0c0.4,0,0.7,0.3,0.7,0.7l0,9.5
			C102.1,10.5,101.8,10.8,101.5,10.8z"/>
		<path d="M108.3,10.8h-1.1c-0.4,0-0.7-0.3-0.7-0.7V0.7c0-0.4,0.3-0.7,0.7-0.7l1.1,0c0.4,0,0.7,0.3,0.7,0.7v9.5
			C109,10.5,108.7,10.8,108.3,10.8z"/>
		<path d="M115.2,10.8h-1c-0.4,0-0.7-0.3-0.7-0.7V0.7c0-0.4,0.3-0.7,0.7-0.7l1,0c0.4,0,0.7,0.3,0.7,0.7v9.5
			C115.9,10.5,115.6,10.8,115.2,10.8z"/>
		<path d="M122.1,10.8h-1c-0.4,0-0.7-0.3-0.7-0.7V0.7c0-0.4,0.3-0.7,0.7-0.7l1,0c0.4,0,0.7,0.3,0.7,0.7v9.5
			C122.8,10.5,122.5,10.8,122.1,10.8z"/>
		<path d="M129,10.8h-1c-0.4,0-0.7-0.3-0.7-0.7V0.7c0-0.4,0.3-0.7,0.7-0.7l1,0c0.4,0,0.7,0.3,0.7,0.7v9.5
			C129.7,10.5,129.4,10.8,129,10.8z"/>
	</g>
	<g>
		<rect x="12.6" y="28.9" fill="#0B0B0B" width="30.4" height="0.5"/>
	</g>
</g>
</svg>
