<?xml version="1.0" encoding="utf-8"?>
<!-- Generator: Adobe Illustrator 18.0.0, SVG Export Plug-In . SVG Version: 6.00 Build 0)  -->
<!DOCTYPE svg PUBLIC "-//W3C//DTD SVG 1.0//EN" "http://www.w3.org/TR/2001/REC-SVG-20010904/DTD/svg10.dtd">
<svg version="1.0" id="Layer_1" xmlns="http://www.w3.org/2000/svg" xmlns:xlink="http://www.w3.org/1999/xlink" x="0px" y="0px"
	 viewBox="0 0 396.7 600" enable-background="new 0 0 396.7 600" xml:space="preserve">
<g>
	<path fill="#D6D6D6" d="M354.3,298c-6-14.5-22.7-21.4-37.2-15.4c-41.2,17.1-77.9,21.5-100.4,22.4l0-0.4l0.1,0
		c-0.1,0-4.3,0.4-11.5,0.5c-7.2-0.1-11.4-0.5-11.5-0.5l0.1,0l0,0.4c-22.5-0.9-59.2-5.3-100.4-22.4c-14.5-6-31.2,0.9-37.2,15.4
		c-6,14.5,0.9,31.2,15.4,37.2c57.5,23.8,107.8,27.2,133.6,26.9c25.8,0.3,76.1-3,133.6-26.9C353.4,329.2,360.3,312.5,354.3,298z"/>
	<ellipse fill="#C9C9C9" cx="204" cy="170.1" rx="27.6" ry="17.7"/>
	<path fill="#282828" d="M381.3,568.3c-0.8,0-1.5,0.1-2.3,0.2v-1.7c0.4,0,0.7,0.1,1.1,0.1c2.9,0,5.8-1.4,7.5-4
		c2.8-4.1,1.8-9.8-2.3-12.7c-0.6-0.4-15.6-10.6-46.3-20.9c-25.8-8.7-68.1-19.1-126.7-21.3V399.7c11.7-1.6,17.5-5,17.5-5
		c0-8.7,1-19.8,2.4-31.4l115.9-8.1c12.9-0.9,23-11.7,23-24.6V324h4.9V186.1h6.9v-16.3c0-3.2-6.3-5.7-14.1-5.7
		c-7.8,0-14.1,2.6-14.1,5.7v16.3h6.9V324h4.9v6.6c0,10.5-8.2,19.3-18.6,20l-114.9,8c2.2-16.7,5-33.6,7-44.5
		c78.6-8.6,116.1-47.1,109.8-110.6c-7.2-72.6,10.6-130.7,12.9-149.7c2.3-19,1.9-40.3-32.7-45.6c-34.6-5.3-126.2-7.6-126.2-7.6
		S112.2,2.9,77.6,8.3c-34.6,5.3-35,26.6-32.7,45.6c2.3,19,20.1,77.1,12.9,149.7c-6.1,61.4,28.7,99.4,101.9,109.6
		c1.9,10.7,4.9,27.9,7.1,44.9l-107.1-7.5c-10.5-0.7-18.7-9.5-18.7-20V324H46V186.1h6.9v-16.3c0-3.2-6.3-5.7-14.1-5.7
		c-7.8,0-14.1,2.6-14.1,5.7v16.3h6.9V324h4.9v6.6c0,12.9,10.1,23.7,23,24.6l108,7.6c1.4,11.7,2.4,23.1,2.4,31.9
		c0,0,4.8,2.8,14.4,4.5V508c-58.5,2.3-100.9,12.7-126.7,21.3c-30.7,10.3-45.6,20.5-46.3,20.9c-4.1,2.9-5.2,8.5-2.3,12.7
		c1.8,2.6,4.6,4,7.5,4c0.4,0,0.7,0,1.1-0.1v1.7c-0.7-0.1-1.5-0.2-2.3-0.2c-8.5,0-15.4,6.9-15.4,15.4s6.9,15.4,15.4,15.4
		s15.4-6.9,15.4-15.4c0-0.4,0-0.8-0.1-1.2h0.1v-22.3c7-3.6,18.2-8.7,33.6-13.8c25.3-8.4,67.4-18.5,126.1-20.3
		c2.6,9.7,5.1,22.9,3.6,31.7c-0.6,3.8,1.9,7.3,6,9.1v1.7c-8,0.6-14.4,7.2-14.4,15.4c0,8.6,6.9,15.5,15.5,15.5
		c8.6,0,15.5-6.9,15.5-15.5c0-0.8-0.1-1.5-0.2-2.3c0.1-0.4,0.2-0.8,0.2-1.3v-16.7c0.9-1.1,1.5-2.3,1.8-3.7
		c1.7-10.3-0.5-23.5-2.9-33.6c53.8,2.5,92.8,12,116.7,19.9c15.4,5.1,26.6,10.2,33.6,13.8v22.3h0.1c0,0.4-0.1,0.8-0.1,1.2
		c0,8.5,6.9,15.4,15.4,15.4c8.5,0,15.4-6.9,15.4-15.4S389.8,568.3,381.3,568.3z M236.2,277.8v-86.4c27.8,7.2,69.9,19.4,85.7,30.8
		C316.7,255.8,290.9,273.2,236.2,277.8z M238.4,176c0.6-1.9,0.9-3.8,0.9-5.8c0-1.8-0.2-3.5-0.7-5.2c19-7.1,54.7-19.5,83.4-24.5
		c-1.4,16.4-1.7,34.9,0.3,54.7c0.2,1.6,0.3,3.2,0.4,4.7C312.6,198,269.4,189.3,238.4,176z M74.6,73.2c-1.9-15.5-1.5-32.8,26.6-37.2
		c7.5-1.2,21-3,30.2-3s49.2,10.7,72.3,12.4c23-1.7,63.1-12.4,72.3-12.4s22.7,1.8,30.2,3c28.2,4.3,28.5,21.7,26.6,37.2
		c-0.9,7.9-5.2,24-8.3,45.7c-15.6,9.2-52,26.4-107.4,27.5c-4.1-1.2-8.5-1.8-13.1-1.8c-4.6,0-9.1,0.7-13.1,1.8
		c-56-1.1-92.6-18.5-108-27.7C79.8,97.1,75.6,81.1,74.6,73.2z M85.2,195.2c2-19.9,1.6-38.4,0.3-54.8c28.9,4.9,64.9,17.5,84,24.6
		c-0.5,1.7-0.7,3.4-0.7,5.1c0,2,0.3,3.9,0.9,5.7c-31.4,13.6-75.4,22.3-84.9,24.1C84.9,198.4,85,196.8,85.2,195.2z M171.3,277.8
		c-54.5-4.5-80.4-21.9-85.7-55.5c15.5-11.4,57.7-23.6,85.7-30.9V277.8z"/>
</g>
</svg>
