<?xml version="1.0" encoding="utf-8"?>
<!-- Generator: Adobe Illustrator 18.0.0, SVG Export Plug-In . SVG Version: 6.00 Build 0)  -->
<!DOCTYPE svg PUBLIC "-//W3C//DTD SVG 1.0//EN" "http://www.w3.org/TR/2001/REC-SVG-20010904/DTD/svg10.dtd">
<svg version="1.0" id="Layer_1" xmlns="http://www.w3.org/2000/svg" xmlns:xlink="http://www.w3.org/1999/xlink" x="0px" y="0px"
	 viewBox="0 0 800 600" enable-background="new 0 0 800 600" xml:space="preserve">
<g id="Layer_7" display="none">
	<g display="inline">
		<path fill="#EE327E" d="M399.5,582.7c-152.3,0.9-285.5-126.1-282.2-289.2C120.6,144.4,242,16.9,400.5,17.3
			C558,17.8,682.2,144.8,682.2,300C682.7,460.3,550.9,584.1,399.5,582.7z M414.1,540c15.9,0,45-5.2,72.7-16.4
			c4.7-1.9,6.1-3.8,5.2-9.4c-10.8-56.7-26.7-111.6-46.4-165.9c-2.3-6.1-5.2-8.4-11.3-5.2c-19.2,8.9-39.4,16.9-57.7,27.2
			c-48.7,27.2-89.1,63.3-118.1,110.6c-5.6,8.9-5.6,9.4,2.8,15C303,525,349.4,540,414.1,540z M220.9,458.9c2.3-2.8,3.3-4.7,4.7-6.6
			c26.2-38.9,57.7-72.2,95.2-100.8c29.1-22,60.5-38.9,95.2-50.2c8.9-2.8,8.9-3.3,5.2-11.7c-3.3-7.5-7-14.5-10.3-22
			c-2.8-6.6-6.6-7.5-13.1-5.6c-74.1,20.6-150,30.5-227.3,31.4c-7.5,0-9.8,1.9-9.8,9.4c0.5,54.8,18.8,103.1,51.6,146.2
			C214.4,452.8,217.2,455.6,220.9,458.9z M166.6,249.4c3.8,0,6.6,0.5,9.4,0.5c25.8-1.4,52-2.3,77.8-4.7
			c41.7-3.8,82.5-11.3,122.8-21.6c8.9-2.3,8.9-2.8,4.2-10.8c-25.3-39.4-50.6-79.2-76.4-118.6c-7-10.8-7-10.3-18.3-4.2
			c-60.9,33.3-99.8,84.4-118.1,150.9C167,243.3,167,246.1,166.6,249.4z M345.6,67c2.8,4.2,4.2,6.6,6.1,8.9
			c10.8,15.9,22,31.4,32.3,47.3c15.9,25.3,30.9,50.6,45.9,76.4c2.8,5.2,5.6,6.6,11.3,3.7c5.6-2.8,11.3-4.7,16.9-7.5
			c35.6-16.9,68.4-37.5,94.2-67.5c6.6-7.5,6.6-8.4-1.4-14.5C497.5,72.2,437,54.8,369.5,62.3C362,63.3,355,65.2,345.6,67z
			 M639.1,283.6L639.1,283.6c-0.5-6.1-0.9-11.7-1.9-17.3c-5.6-40.3-21.6-76.9-45.5-109.7c-3.8-4.7-6.1-5.6-10.8-0.5
			c-8.4,8.9-16.9,17.8-25.8,26.2c-27.7,23.9-59.1,42.7-92.8,57.2c-8.9,3.7-8.9,3.7-5.2,13.1c4.2,9.8,8.9,19.2,12.7,29.1
			c2.3,6.1,5.6,7.5,11.7,7c9.8-0.9,19.7-1.9,29.5-2.3c39.4-0.9,78.3,1.4,117.2,8.4c10.8,1.9,11.3,1.4,10.8-9.4
			C639.1,285,639.1,284.1,639.1,283.6z M535.5,497.8c2.8-1.9,4.7-2.8,6.6-3.8c48.8-36.1,79.2-84.4,92.3-143.9
			c2.3-10.8,2.3-10.8-8-13.6c-42.2-10.8-84.8-13.1-128.4-8.9c-8,0.9-8.9,2.3-6.1,10.3c15.5,43.6,28.1,88.6,38,134.1
			C531.7,480,533.6,488.4,535.5,497.8z"/>
	</g>
</g>
<g id="Layer_6" display="none">
	<g display="inline">
		<path fill="#3E65AF" d="M99.5,480.5c0-123.8,0-247,0-370.8c1.9-0.5,4.2-0.9,6.1-0.9c60.9,0,122.3-0.5,183.3,0.5
			c25.8,0.5,50.2,7,71.3,23c37,28.6,45,93.3,14.5,128.4c-7,8.4-16.9,14.1-25.3,21.1c-0.5-0.5,0,0.5,0.5,0.5
			c53,27.2,70.8,85.8,42.2,139.2c-20.2,38-53.4,56.7-94.7,58.1c-64.7,2.3-129.8,1.4-194.5,1.9C101.9,481.9,101.4,481.4,99.5,480.5z
			 M172.7,415.3c38.9,0,76.9,0.9,114.4-0.5c15.5-0.5,28.1-9.8,34.7-24.8c15.9-34.7-0.5-65.6-38-71.7c-3.3-0.5-6.1-0.9-9.4-0.9
			c-31.9,0-63.8-0.5-95.6-0.5c-1.9,0-3.8,0.9-6.1,1.4c0,29.1,0,58.1,0,86.7C172.7,408.8,172.7,412,172.7,415.3z M172.7,255.5
			c3.8,0.5,6.6,0.5,8.9,0.5c26.7,0,53.4,0.5,80.2,0c8.9,0,18.3-0.9,26.7-3.3c22.5-5.6,30.5-18.3,29.5-44.1
			c-0.9-18.8-10.8-30.9-32.3-32.3c-37-2.3-74.1-1.4-111.1-2.3c-0.5,0-0.9,0.9-1.9,1.4C172.7,201.6,172.7,227.8,172.7,255.5z"/>
		<path fill="#3E65AF" d="M700.5,364.2c-68.4,0-134.5,0-200.2,0c-5.2,32.3,18.8,63.7,53,68c26.7,3.3,51.6-0.5,67-26.7
			c0.9-1.9,4.2-3.8,6.6-3.8c22.5-0.5,45,0,70.3,0c-3.8,9.8-6.1,18.8-10.8,26.2c-23.9,40.3-60.5,59.5-106.4,63.3
			c-24.4,1.9-48.3-0.9-71.7-9.8c-47.3-19.7-74.5-53.9-80.2-105c-2.8-26.7-2.8-53.4,3.8-79.7c15-58.6,62.8-97,123.3-97.5
			c16.9,0,34.2,1.4,50.6,5.2c50.2,12.2,85.8,54.4,91.4,106.4C699.1,328.1,699.5,345.5,700.5,364.2z M624.1,316.4
			c1.4-33.3-24.8-58.6-60.9-58.6c-35.2,0-62.3,25.8-60.9,58.6C542.5,316.4,582.8,316.4,624.1,316.4z"/>
		<path fill="#3E65AF" d="M477.3,166.9c0-12.2,0-23.4,0-36.1c53.4,0,106.9,0,160.8,0c0,11.3,0,23.4,0,36.1
			C585.2,166.9,531.7,166.9,477.3,166.9z"/>
	</g>
</g>
<g id="Layer_5" display="none">
	<g display="inline">
		<path fill="#5FA7DC" d="M488.1,92.8c6.1,0,12.7,0,18.8,0c1.9,0.5,4.2,0.9,6.1,0.9c23.4,3.8,43.1,13.6,59.5,30.5
			c0.9,0.9,2.3,1.4,3.8,0.9c22-4.7,42.7-12.7,61.9-23.4c0.5-0.5,1.4-0.5,1.9-0.9c-8,24.4-22.5,43.1-44.1,56.7c0.5,0,0.9,0.5,0.9,0.5
			c14.5-1.9,28.6-5.2,42.2-10.3c5.2-1.9,10.3-3.8,15-5.6v0.5c-0.5,0.5-0.9,0.9-0.9,1.4c-13.6,19.7-30,36.6-49.2,50.6
			c-1.4,0.9-1.9,2.3-1.9,3.8c0,12.2,0,24.4-0.9,36.6c-0.5,9.4-1.9,19.2-4.2,28.6c-2.3,11.7-5.2,23.9-8.9,35.6
			c-16.9,53-45,98.4-86.3,135.5c-51.1,45.9-112,68.9-180,72.7c-0.9,0-1.4,0.5-2.3,0.5c-1.9,0-3.8,0-5.6,0c-0.9,0-1.4-0.5-2.3-0.5
			c-4.2,0-8,0-12.2,0c-0.9,0-1.4,0.5-2.3,0.5c-1.4,0-2.3,0-3.7,0c-0.5,0-0.9-0.5-1.4-0.5c-5.2-0.5-10.3-0.5-15-0.9
			c-8.9-0.9-18.3-1.9-27.2-3.8c-15-2.8-29.5-6.6-44.1-11.7c-20.6-7.5-39.8-16.9-58.6-28.1c-0.5-0.5-1.4-0.9-1.9-1.4
			c27.7,2.8,54.4,0.5,81.1-7c26.7-7.5,50.6-19.7,72.7-36.6c-53.4-2.8-87.7-41.2-96.6-72.7c7.5,0.5,15,1.4,22.5,1.4s15.5-1.4,23-3.8
			c-23.9-5.6-44.1-17.8-59.5-37c-15.5-19.2-23-41.7-23-67c14.5,8,30,12.2,46.4,13.1c-22-15.9-37-37-42.7-63.7
			c-6.1-26.7-1.9-52,11.7-75.9c56.7,66.6,128,103.1,215.6,109.7c0-1.4-0.5-1.9-0.5-2.3c-0.5-4.2-1.4-8.9-1.9-13.1
			c-0.5-4.2,0-8.9,0-13.1c0-3.8,0.5-8,0.9-11.7c1.9-10.3,5.2-20.6,9.8-30c3.8-8,8.9-15.5,14.5-22c6.1-7,12.7-13.1,20.6-18.3
			c12.2-8,25.3-13.6,39.4-15.9C481.6,93.8,484.8,93.3,488.1,92.8z"/>
		<path fill="#5FA7DC" d="M296.9,507.2c0.9,0,1.4-0.5,2.3-0.5c4.2,0,8,0,12.2,0c0.9,0,1.4,0.5,2.3,0.5
			C308.1,507.2,302.5,507.2,296.9,507.2z"/>
	</g>
</g>
<g id="Layer_4" display="none">
	<g display="inline">
		<path fill="#D03428" d="M400.5,581.7c-57.7-1.4-114.4-2.8-171.6-4.2c-32.3-0.9-61.9-29.1-63.3-61.4c-1.9-43.6-2.8-87.2-2.8-131.3
			c0-22,1.4-44.1,4.2-65.6c3.8-29.5,30.5-53.4,60.5-54.8c30-1.9,60.5-2.8,90.9-3.3c54.8-0.5,109.7-0.5,164.5,0c30,0.5,60,1.4,90,2.8
			c34.2,1.9,61.4,30.9,62.3,65.2c0.9,40.8,2.8,81.1,2.8,121.9c0,23.4-1.4,47.3-4.2,70.8c-3.8,30.5-32.3,54.8-62.8,55.8
			C513.9,579.4,456.7,580.3,400.5,581.7z M441.3,369.4c0-0.9,0-2.3,0-4.2c0-16.4,0-32.8,0-49.2c0-5.2-1.9-7-7-7c-7.5,0-15,0-22.5,0
			c-4.7,0-6.6,1.4-6.6,6.6c0,68.4,0,136.9,0,205.3c0,4.7,1.9,6.1,6.1,6.1c7,0,13.6,0,20.6,0c4.7,0,9.4,0.9,9.8-6.1
			c1.9,1.4,3.3,2.3,4.7,2.8c15.9,8.4,40.3,7.5,46.9-17.3c0.9-3.8,1.9-8,1.9-12.2c0-30.9,0.5-62.3,0-93.3c0-6.6-1.4-13.1-3.8-19.2
			c-4.2-12.2-15-19.7-27.7-18.8C456.3,363.3,449.2,367,441.3,369.4z M547.7,452.8c2.3,0,4.2,0,6.1,0c14.1,0,28.1,0,42.2,0
			c4.2,0,6.6-1.9,6.6-6.1c-0.5-15.5,0-31.4-0.9-46.9c-1.4-20.2-14.1-34.2-33.8-38.4c-30-6.1-56.3,14.1-56.7,44.5
			c-0.5,26.7-0.5,53.9,0,80.6c0.5,11.7,4.7,23,13.1,31.4c12.7,12.7,28.1,14.1,44.5,11.3c15-2.8,25.8-11.7,30-26.3
			c2.8-11.3,2.8-23,3.8-34.2c0.5-3.8-2.8-4.7-6.1-4.7c-8,0-15.9,0-23.9,0c-5.2,0-6.6,1.9-6.6,7c0,6.1-0.5,12.2-0.9,18.3
			c-0.5,5.2-3.8,7.5-8.9,7.5c-4.7,0-8-2.8-8-9.4C547.2,476.3,547.7,465,547.7,452.8z M348,517.5c0,0,0,0.9,0,1.4
			c0.5,7.5,0.9,7.5,8,7.5s14.1,0,21.1,0c5.2,0,7-1.9,7-7c0-6.1,0-12.2,0-18.3c0-43.1,0-86.3,0-129.4c0-7-0.9-8-8-8
			c-6.6,0-13.1,0-19.7,0c-7.5,0-8.4,0.9-8.4,8.4c0,35.6,0,70.8,0,106.4c0,5.2-1.4,8.9-5.6,10.8c-3.3,1.4-6.6,2.3-9.8,3.8
			c-0.9-3.3-1.9-6.1-2.3-9.4c-0.5-1.4,0-2.8,0-4.2c0-36.1,0-72.2,0-108.3c0-5.2-1.9-7.5-7-7c-7,0-13.6,0-20.6,0
			c-7.5,0-8.4,0.5-8.4,8c0,41.3,0,82.5,0,123.3c0,4.7,0.5,9.4,1.4,13.6c2.8,14.5,13.6,22.5,28.1,18.8C332,525.9,340,521.3,348,517.5
			z M268.3,346.4c9.4,0,18.3,0,26.7,0c4.7,0,7-1.4,7-6.6c-0.5-8,0-16.4,0-24.4c0-4.7-1.9-6.6-6.6-6.6c-31.4,0-62.8,0-94.2,0
			c-4.7,0-6.6,2.3-6.6,7c0,8,0.5,15.9,0,23.9c0,5.2,1.9,7,7,7c8.4-0.5,17.3,0,26.7,0c0,2.8,0,5.2,0,7c0,18.3,0,37,0,55.3
			c0,36.6,0,73.1,0,109.7c0,8,0.5,8.4,8.4,8.4c7.5,0,14.5,0,22,0c8.4,0,8.9-0.5,8.9-8.9c0-54.8,0-109.7,0-164.5
			C268.3,351.6,268.3,349.2,268.3,346.4z"/>
		<path fill="#F4F4F4" d="M254.7,18.3c10.3,0,19.7,0,29.5,0c1.4,0,3.3,2.8,3.8,4.7c6.6,24.4,12.7,49.2,18.8,74.1
			c0.5,1.9,0.9,3.3,2.8,5.2c0.5-1.9,1.4-3.8,1.9-5.6c6.1-24.4,11.7-49.2,17.8-73.6c0.9-3.8,2.3-5.2,6.1-5.2c8.9,0.5,17.8,0,27.2,0
			c-0.5,2.8-0.9,5.2-1.9,7c-11.3,36.6-22.5,73.1-33.8,109.7c-0.9,3.8-1.9,7.5-1.9,11.3c0,24.8,0,49.7,0,74.5c0,2.3,0,4.2,0,7
			c-10.8,0-21.1,0-31.9,0c0-1.9-0.5-4.2-0.5-6.1c0-23.4,0-47.3,0-70.8c0-4.2-0.5-8.4-1.9-12.7c-11.3-38-23-75.9-34.7-114.4
			C255.6,23,255.6,21.1,254.7,18.3z"/>
		<path fill="#F4F4F4" d="M362,149.5c0-14.1-0.5-27.7,0-41.7c0.9-22,13.6-35.6,35.2-38c19.7-2.3,36.6,5.2,44.1,21.6
			c1.9,4.2,3.3,9.4,3.8,13.6c0.5,30,0.5,60,0,90.5c-0.5,20.6-15.9,35.6-37,36.6c-15.5,0.9-28.6-2.8-38-15.5
			c-4.7-6.6-7.5-13.6-7.5-21.6C362,180,362.5,165,362,149.5C362.5,149.5,362.5,149.5,362,149.5z M416.4,149.5c0-13.1,0-26.7,0-39.8
			c0-7.5-2.8-11.3-8.9-13.1c-9.8-2.8-16.4,2.8-16.4,13.6c0,26.3,0,52.5,0,79.2c0,2.3,0.5,4.7,0.9,7c0.9,5.2,4.7,8.4,10.3,8.9
			c8.4,0.5,14.1-5.2,14.1-15C416.9,176.7,416.4,163.1,416.4,149.5z"/>
		<path fill="#F4F4F4" d="M552.3,74.1c0,51.6,0,102.7,0,154.2c-9.4,0-18.3,0-28.1,0c0-5.2,0-10.3,0-16.9c-2.8,2.8-4.7,4.7-6.6,6.1
			c-7,6.6-14.5,11.3-23.9,13.1c-10.8,1.9-19.2-3.3-22-14.1c-0.9-4.7-1.4-9.4-1.4-14.1c0-41.3,0-82.5,0-123.3c0-1.4,0-2.8,0.5-4.7
			c9.4,0,18.3,0,28.1,0c0,2.3,0,4.7,0,7c0,35.2,0,70.3,0,105c0,1.9-0.5,3.8,0,5.6c0.9,3.3,1.9,8.9,4.2,9.8c2.8,1.4,8,0,11.3-1.9
			c6.6-3.8,9.8-8.9,9.8-17.3c-0.5-33.8-0.5-68-0.5-101.7c0-2.3,0-4.2,0-6.6C534.1,74.1,543,74.1,552.3,74.1z"/>
		<path fill="#D03428" d="M441.7,444.8c0-14.1,0-28.1,0-42.2c0-5.6,2.8-7.5,7.5-8.4s8,1.4,8.9,6.1c0.5,2.8,0.9,5.6,0.9,8
			c0,25.3,0,51.1,0,76.4c0,0.9,0,1.9,0,2.8c-0.5,7.5-1.9,9.8-7,9.8c-6.1,0-10.3-3.8-10.3-10.3C441.3,473,441.7,458.9,441.7,444.8z"
			/>
		<path fill="#D03428" d="M565.9,421.4c-6.6,0-12.7,0-18.3,0c0-6.6-0.5-13.1,0-19.7c0.5-4.7,3.8-6.6,8.4-6.6s7.5,2.3,8,6.6
			C565.5,407.8,565.5,414.4,565.9,421.4z"/>
	</g>
</g>
<g id="Layer_3" display="none">
	<g display="inline">
		<path fill="#22B8EB" d="M174.1,230.2c-7.5-9.8-15-19.2-23-29.5c6.6-6.1,13.1-12.2,20.2-17.8c27.7-23.9,55.3-48.3,83.9-71.3
			c11.7-9.8,25.3-17.8,41.3-19.7c23.9-3.3,42.2,5.6,54.8,25.8c12.2,18.8,15.5,40.3,19.2,61.9c7.5,45.5,13.1,91.9,26.7,136.4
			c3.3,11.3,8,22.5,13.6,32.8c7.5,13.6,16.4,14.5,28.6,4.7c3.8-3.3,7-7,10.3-10.8c21.6-27.2,40.8-56.3,52-89.5
			c3.3-9.8,4.2-21.1,3.8-31.4c-0.5-15.9-10.8-26.3-26.7-27.2c-7-0.5-14.5,0-21.6,0.9c-6.6,0.9-13.6,3.3-20.2,5.2
			c-0.5-0.5-0.9-0.9-0.9-0.9c10.8-34.7,26.2-66.1,55.8-88.6c31.9-24.4,68.4-30.5,106.9-21.6c27.2,6.1,40.8,26.3,46.4,52.5
			c8,37.5,1.4,73.1-14.1,107.8c-15.9,36.1-37,69.4-60.5,101.3C542.5,390,513,428,477.3,461.3c-21.6,19.7-44.1,38-71.7,47.8
			c-34.2,12.2-57.7,5.6-78.8-23.9c-15.5-22-24.8-46.4-31.9-72.2c-13.6-50.2-27.2-99.8-41.7-149.5c-4.2-13.6-11.3-26.3-17.8-39.4
			c-2.3-4.7-7-8.9-11.3-12.7c-5.6-4.7-12.2-5.6-18.8-1.4C195.6,216.6,185.3,223.1,174.1,230.2z"/>
	</g>
</g>
<g id="Layer_2">
	<path fill="#FFFFFF" d="M327.9,601.8V318.6h-74.7V216.5h74.7v-87.1C327.9,60.9,372-1.8,474.2-1.8c41.5,0,72.1,4.1,72.1,4.1
		l-2.6,95.4c0,0-31.1-0.5-65.3-0.5c-36.8,0-42.5,17.1-42.5,45.1V217h111l-4.7,102.2H436.3v283.1L327.9,601.8z"/>
</g>
</svg>
