<?xml version="1.0" encoding="utf-8"?>
<!-- Generator: Adobe Illustrator 18.0.0, SVG Export Plug-In . SVG Version: 6.00 Build 0)  -->
<!DOCTYPE svg PUBLIC "-//W3C//DTD SVG 1.0//EN" "http://www.w3.org/TR/2001/REC-SVG-20010904/DTD/svg10.dtd">
<svg version="1.0" id="Layer_1" xmlns="http://www.w3.org/2000/svg" xmlns:xlink="http://www.w3.org/1999/xlink" x="0px" y="0px"
	 viewBox="0 0 800 600" enable-background="new 0 0 800 600" xml:space="preserve">
<g id="Layer_7" display="none">
	<g display="inline">
		<path fill="#EE327E" d="M399.5,582.7c-152.3,0.9-285.5-126.1-282.2-289.2C120.6,144.4,242,16.9,400.5,17.3
			C558,17.8,682.2,144.8,682.2,300C682.7,460.3,550.9,584.1,399.5,582.7z M414.1,540c15.9,0,45-5.2,72.7-16.4
			c4.7-1.9,6.1-3.8,5.2-9.4c-10.8-56.7-26.7-111.6-46.4-165.9c-2.3-6.1-5.2-8.4-11.3-5.2c-19.2,8.9-39.4,16.9-57.7,27.2
			c-48.7,27.2-89.1,63.3-118.1,110.6c-5.6,8.9-5.6,9.4,2.8,15C303,525,349.4,540,414.1,540z M220.9,458.9c2.3-2.8,3.3-4.7,4.7-6.6
			c26.2-38.9,57.7-72.2,95.2-100.8c29.1-22,60.5-38.9,95.2-50.2c8.9-2.8,8.9-3.3,5.2-11.7c-3.3-7.5-7-14.5-10.3-22
			c-2.8-6.6-6.6-7.5-13.1-5.6c-74.1,20.6-150,30.5-227.3,31.4c-7.5,0-9.8,1.9-9.8,9.4c0.5,54.8,18.8,103.1,51.6,146.2
			C214.4,452.8,217.2,455.6,220.9,458.9z M166.6,249.4c3.8,0,6.6,0.5,9.4,0.5c25.8-1.4,52-2.3,77.8-4.7
			c41.7-3.8,82.5-11.3,122.8-21.6c8.9-2.3,8.9-2.8,4.2-10.8c-25.3-39.4-50.6-79.2-76.4-118.6c-7-10.8-7-10.3-18.3-4.2
			c-60.9,33.3-99.8,84.4-118.1,150.9C167,243.3,167,246.1,166.6,249.4z M345.6,67c2.8,4.2,4.2,6.6,6.1,8.9
			c10.8,15.9,22,31.4,32.3,47.3c15.9,25.3,30.9,50.6,45.9,76.4c2.8,5.2,5.6,6.6,11.3,3.7c5.6-2.8,11.3-4.7,16.9-7.5
			c35.6-16.9,68.4-37.5,94.2-67.5c6.6-7.5,6.6-8.4-1.4-14.5C497.5,72.2,437,54.8,369.5,62.3C362,63.3,355,65.2,345.6,67z
			 M639.1,283.6L639.1,283.6c-0.5-6.1-0.9-11.7-1.9-17.3c-5.6-40.3-21.6-76.9-45.5-109.7c-3.8-4.7-6.1-5.6-10.8-0.5
			c-8.4,8.9-16.9,17.8-25.8,26.2c-27.7,23.9-59.1,42.7-92.8,57.2c-8.9,3.7-8.9,3.7-5.2,13.1c4.2,9.8,8.9,19.2,12.7,29.1
			c2.3,6.1,5.6,7.5,11.7,7c9.8-0.9,19.7-1.9,29.5-2.3c39.4-0.9,78.3,1.4,117.2,8.4c10.8,1.9,11.3,1.4,10.8-9.4
			C639.1,285,639.1,284.1,639.1,283.6z M535.5,497.8c2.8-1.9,4.7-2.8,6.6-3.8c48.8-36.1,79.2-84.4,92.3-143.9
			c2.3-10.8,2.3-10.8-8-13.6c-42.2-10.8-84.8-13.1-128.4-8.9c-8,0.9-8.9,2.3-6.1,10.3c15.5,43.6,28.1,88.6,38,134.1
			C531.7,480,533.6,488.4,535.5,497.8z"/>
	</g>
</g>
<g id="Layer_6" display="none">
	<g display="inline">
		<path fill="#3E65AF" d="M99.5,480.5c0-123.8,0-247,0-370.8c1.9-0.5,4.2-0.9,6.1-0.9c60.9,0,122.3-0.5,183.3,0.5
			c25.8,0.5,50.2,7,71.3,23c37,28.6,45,93.3,14.5,128.4c-7,8.4-16.9,14.1-25.3,21.1c-0.5-0.5,0,0.5,0.5,0.5
			c53,27.2,70.8,85.8,42.2,139.2c-20.2,38-53.4,56.7-94.7,58.1c-64.7,2.3-129.8,1.4-194.5,1.9C101.9,481.9,101.4,481.4,99.5,480.5z
			 M172.7,415.3c38.9,0,76.9,0.9,114.4-0.5c15.5-0.5,28.1-9.8,34.7-24.8c15.9-34.7-0.5-65.6-38-71.7c-3.3-0.5-6.1-0.9-9.4-0.9
			c-31.9,0-63.8-0.5-95.6-0.5c-1.9,0-3.8,0.9-6.1,1.4c0,29.1,0,58.1,0,86.7C172.7,408.8,172.7,412,172.7,415.3z M172.7,255.5
			c3.8,0.5,6.6,0.5,8.9,0.5c26.7,0,53.4,0.5,80.2,0c8.9,0,18.3-0.9,26.7-3.3c22.5-5.6,30.5-18.3,29.5-44.1
			c-0.9-18.8-10.8-30.9-32.3-32.3c-37-2.3-74.1-1.4-111.1-2.3c-0.5,0-0.9,0.9-1.9,1.4C172.7,201.6,172.7,227.8,172.7,255.5z"/>
		<path fill="#3E65AF" d="M700.5,364.2c-68.4,0-134.5,0-200.2,0c-5.2,32.3,18.8,63.7,53,68c26.7,3.3,51.6-0.5,67-26.7
			c0.9-1.9,4.2-3.8,6.6-3.8c22.5-0.5,45,0,70.3,0c-3.8,9.8-6.1,18.8-10.8,26.2c-23.9,40.3-60.5,59.5-106.4,63.3
			c-24.4,1.9-48.3-0.9-71.7-9.8c-47.3-19.7-74.5-53.9-80.2-105c-2.8-26.7-2.8-53.4,3.8-79.7c15-58.6,62.8-97,123.3-97.5
			c16.9,0,34.2,1.4,50.6,5.2c50.2,12.2,85.8,54.4,91.4,106.4C699.1,328.1,699.5,345.5,700.5,364.2z M624.1,316.4
			c1.4-33.3-24.8-58.6-60.9-58.6c-35.2,0-62.3,25.8-60.9,58.6C542.5,316.4,582.8,316.4,624.1,316.4z"/>
		<path fill="#3E65AF" d="M477.3,166.9c0-12.2,0-23.4,0-36.1c53.4,0,106.9,0,160.8,0c0,11.3,0,23.4,0,36.1
			C585.2,166.9,531.7,166.9,477.3,166.9z"/>
	</g>
</g>
<g id="Layer_5" display="none">
	<g display="inline">
		<path fill="#5FA7DC" d="M488.1,92.8c6.1,0,12.7,0,18.8,0c1.9,0.5,4.2,0.9,6.1,0.9c23.4,3.8,43.1,13.6,59.5,30.5
			c0.9,0.9,2.3,1.4,3.8,0.9c22-4.7,42.7-12.7,61.9-23.4c0.5-0.5,1.4-0.5,1.9-0.9c-8,24.4-22.5,43.1-44.1,56.7c0.5,0,0.9,0.5,0.9,0.5
			c14.5-1.9,28.6-5.2,42.2-10.3c5.2-1.9,10.3-3.8,15-5.6v0.5c-0.5,0.5-0.9,0.9-0.9,1.4c-13.6,19.7-30,36.6-49.2,50.6
			c-1.4,0.9-1.9,2.3-1.9,3.8c0,12.2,0,24.4-0.9,36.6c-0.5,9.4-1.9,19.2-4.2,28.6c-2.3,11.7-5.2,23.9-8.9,35.6
			c-16.9,53-45,98.4-86.3,135.5c-51.1,45.9-112,68.9-180,72.7c-0.9,0-1.4,0.5-2.3,0.5c-1.9,0-3.8,0-5.6,0c-0.9,0-1.4-0.5-2.3-0.5
			c-4.2,0-8,0-12.2,0c-0.9,0-1.4,0.5-2.3,0.5c-1.4,0-2.3,0-3.7,0c-0.5,0-0.9-0.5-1.4-0.5c-5.2-0.5-10.3-0.5-15-0.9
			c-8.9-0.9-18.3-1.9-27.2-3.8c-15-2.8-29.5-6.6-44.1-11.7c-20.6-7.5-39.8-16.9-58.6-28.1c-0.5-0.5-1.4-0.9-1.9-1.4
			c27.7,2.8,54.4,0.5,81.1-7c26.7-7.5,50.6-19.7,72.7-36.6c-53.4-2.8-87.7-41.2-96.6-72.7c7.5,0.5,15,1.4,22.5,1.4s15.5-1.4,23-3.8
			c-23.9-5.6-44.1-17.8-59.5-37c-15.5-19.2-23-41.7-23-67c14.5,8,30,12.2,46.4,13.1c-22-15.9-37-37-42.7-63.7
			c-6.1-26.7-1.9-52,11.7-75.9c56.7,66.6,128,103.1,215.6,109.7c0-1.4-0.5-1.9-0.5-2.3c-0.5-4.2-1.4-8.9-1.9-13.1
			c-0.5-4.2,0-8.9,0-13.1c0-3.8,0.5-8,0.9-11.7c1.9-10.3,5.2-20.6,9.8-30c3.8-8,8.9-15.5,14.5-22c6.1-7,12.7-13.1,20.6-18.3
			c12.2-8,25.3-13.6,39.4-15.9C481.6,93.8,484.8,93.3,488.1,92.8z"/>
		<path fill="#5FA7DC" d="M296.9,507.2c0.9,0,1.4-0.5,2.3-0.5c4.2,0,8,0,12.2,0c0.9,0,1.4,0.5,2.3,0.5
			C308.1,507.2,302.5,507.2,296.9,507.2z"/>
	</g>
</g>
<path fill="#FFFFFF" d="M400.5,600.7c-61.5-1.5-122.1-3-183.1-4.5c-34.5-1-66-31-67.5-65.5c-2-46.5-3-93.1-3-140.1
	c0-23.5,1.5-47,4.5-70c4-31.5,32.5-57,64.5-58.5c32-2,64.5-3,97.1-3.5c58.5-0.5,117.1-0.5,175.6,0c32,0.5,64,1.5,96.1,3
	c36.5,2,65.5,33,66.5,69.5c1,43.5,3,86.6,3,130.1c0,25-1.5,50.5-4.5,75.6c-4,32.5-34.5,58.5-67,59.5
	C521.6,598.2,460.5,599.2,400.5,600.7z M444,374.1c0-1,0-2.5,0-4.5c0-17.5,0-35,0-52.5c0-5.5-2-7.5-7.5-7.5c-8,0-16,0-24,0
	c-5,0-7,1.5-7,7c0,73,0,146.1,0,219.1c0,5,2,6.5,6.5,6.5c7.5,0,14.5,0,22,0c5,0,10,1,10.5-6.5c2,1.5,3.5,2.5,5,3c17,9,43,8,50-18.5
	c1-4,2-8.5,2-13c0-33,0.5-66.5,0-99.6c0-7-1.5-14-4-20.5c-4.5-13-16-21-29.5-20C460,367.6,452.5,371.6,444,374.1z M557.6,463.1
	c2.5,0,4.5,0,6.5,0c15,0,30,0,45,0c4.5,0,7-2,7-6.5c-0.5-16.5,0-33.5-1-50c-1.5-21.5-15-36.5-36-41c-32-6.5-60,15-60.5,47.5
	c-0.5,28.5-0.5,57.5,0,86.1c0.5,12.5,5,24.5,14,33.5c13.5,13.5,30,15,47.5,12c16-3,27.5-12.5,32-28c3-12,3-24.5,4-36.5
	c0.5-4-3-5-6.5-5c-8.5,0-17,0-25.5,0c-5.5,0-7,2-7,7.5c0,6.5-0.5,13-1,19.5c-0.5,5.5-4,8-9.5,8c-5,0-8.5-3-8.5-10
	C557.1,488.1,557.6,476.1,557.6,463.1z M344.4,532.2c0,0,0,1,0,1.5c0.5,8,1,8,8.5,8s15,0,22.5,0c5.5,0,7.5-2,7.5-7.5
	c0-6.5,0-13,0-19.5c0-46,0-92.1,0-138.1c0-7.5-1-8.5-8.5-8.5c-7,0-14,0-21,0c-8,0-9,1-9,9c0,38,0,75.6,0,113.6c0,5.5-1.5,9.5-6,11.5
	c-3.5,1.5-7,2.5-10.5,4c-1-3.5-2-6.5-2.5-10c-0.5-1.5,0-3,0-4.5c0-38.5,0-77.1,0-115.6c0-5.5-2-8-7.5-7.5c-7.5,0-14.5,0-22,0
	c-8,0-9,0.5-9,8.5c0,44,0,88.1,0,131.6c0,5,0.5,10,1.5,14.5c3,15.5,14.5,24,30,20C327.4,541.2,335.9,536.2,344.4,532.2z
	 M259.4,349.5c10,0,19.5,0,28.5,0c5,0,7.5-1.5,7.5-7c-0.5-8.5,0-17.5,0-26c0-5-2-7-7-7c-33.5,0-67,0-100.6,0c-5,0-7,2.5-7,7.5
	c0,8.5,0.5,17,0,25.5c0,5.5,2,7.5,7.5,7.5c9-0.5,18.5,0,28.5,0c0,3,0,5.5,0,7.5c0,19.5,0,39.5,0,59c0,39,0,78.1,0,117.1
	c0,8.5,0.5,9,9,9c8,0,15.5,0,23.5,0c9,0,9.5-0.5,9.5-9.5c0-58.5,0-117.1,0-175.6C259.4,355.1,259.4,352.6,259.4,349.5z"/>
<path fill="#FFFFFF" d="M244.9-0.7c11,0,21,0,31.5,0c1.5,0,3.5,3,4,5c7,26,13.5,52.5,20,79.1c0.5,2,1,3.5,3,5.5c0.5-2,1.5-4,2-6
	c6.5-26,12.5-52.5,19-78.6c1-4,2.5-5.5,6.5-5.5c9.5,0.5,19,0,29,0c-0.5,3-1,5.5-2,7.5c-12,39-24,78.1-36,117.1c-1,4-2,8-2,12
	c0,26.5,0,53,0,79.6c0,2.5,0,4.5,0,7.5c-11.5,0-22.5,0-34,0c0-2-0.5-4.5-0.5-6.5c0-25,0-50.5,0-75.6c0-4.5-0.5-9-2-13.5
	c-12-40.5-24.5-81.1-37-122.1C245.9,4.3,245.9,2.3,244.9-0.7z"/>
<path fill="#FFFFFF" d="M359.4,139.4c0-15-0.5-29.5,0-44.5c1-23.5,14.5-38,37.5-40.5c21-2.5,39,5.5,47,23c2,4.5,3.5,10,4,14.5
	c0.5,32,0.5,64,0,96.6c-0.5,22-17,38-39.5,39c-16.5,1-30.5-3-40.5-16.5c-5-7-8-14.5-8-23C359.4,171.9,359.9,155.9,359.4,139.4
	C359.9,139.4,359.9,139.4,359.4,139.4z M417.5,139.4c0-14,0-28.5,0-42.5c0-8-3-12-9.5-14c-10.5-3-17.5,3-17.5,14.5c0,28,0,56,0,84.6
	c0,2.5,0.5,5,1,7.5c1,5.5,5,9,11,9.5c9,0.5,15-5.5,15-16C418,168.4,417.5,153.9,417.5,139.4z"/>
<path fill="#FFFFFF" d="M562.6,58.9c0,55,0,109.6,0,164.6c-10,0-19.5,0-30,0c0-5.5,0-11,0-18c-3,3-5,5-7,6.5c-7.5,7-15.5,12-25.5,14
	c-11.5,2-20.5-3.5-23.5-15c-1-5-1.5-10-1.5-15c0-44,0-88.1,0-131.6c0-1.5,0-3,0.5-5c10,0,19.5,0,30,0c0,2.5,0,5,0,7.5
	c0,37.5,0,75.1,0,112.1c0,2-0.5,4,0,6c1,3.5,2,9.5,4.5,10.5c3,1.5,8.5,0,12-2c7-4,10.5-9.5,10.5-18.5c-0.5-36-0.5-72.5-0.5-108.6
	c0-2.5,0-4.5,0-7C543.1,58.9,552.6,58.9,562.6,58.9z"/>
<path fill="#FFFFFF" d="M444.5,454.6c0-15,0-30,0-45c0-6,3-8,8-9c5-1,8.5,1.5,9.5,6.5c0.5,3,1,6,1,8.5c0,27,0,54.5,0,81.6
	c0,1,0,2,0,3c-0.5,8-2,10.5-7.5,10.5c-6.5,0-11-4-11-11C444,484.6,444.5,469.6,444.5,454.6z"/>
<path fill="#FFFFFF" d="M577.1,429.6c-7,0-13.5,0-19.5,0c0-7-0.5-14,0-21c0.5-5,4-7,9-7s8,2.5,8.5,7
	C576.6,415.1,576.6,422.1,577.1,429.6z"/>
<g id="Layer_3" display="none">
	<g display="inline">
		<path fill="#22B8EB" d="M174.1,230.2c-7.5-9.8-15-19.2-23-29.5c6.6-6.1,13.1-12.2,20.2-17.8c27.7-23.9,55.3-48.3,83.9-71.3
			c11.7-9.8,25.3-17.8,41.3-19.7c23.9-3.3,42.2,5.6,54.8,25.8c12.2,18.8,15.5,40.3,19.2,61.9c7.5,45.5,13.1,91.9,26.7,136.4
			c3.3,11.3,8,22.5,13.6,32.8c7.5,13.6,16.4,14.5,28.6,4.7c3.8-3.3,7-7,10.3-10.8c21.6-27.2,40.8-56.3,52-89.5
			c3.3-9.8,4.2-21.1,3.8-31.4c-0.5-15.9-10.8-26.3-26.7-27.2c-7-0.5-14.5,0-21.6,0.9c-6.6,0.9-13.6,3.3-20.2,5.2
			c-0.5-0.5-0.9-0.9-0.9-0.9c10.8-34.7,26.2-66.1,55.8-88.6c31.9-24.4,68.4-30.5,106.9-21.6c27.2,6.1,40.8,26.3,46.4,52.5
			c8,37.5,1.4,73.1-14.1,107.8c-15.9,36.1-37,69.4-60.5,101.3C542.5,390,513,428,477.3,461.3c-21.6,19.7-44.1,38-71.7,47.8
			c-34.2,12.2-57.7,5.6-78.8-23.9c-15.5-22-24.8-46.4-31.9-72.2c-13.6-50.2-27.2-99.8-41.7-149.5c-4.2-13.6-11.3-26.3-17.8-39.4
			c-2.3-4.7-7-8.9-11.3-12.7c-5.6-4.7-12.2-5.6-18.8-1.4C195.6,216.6,185.3,223.1,174.1,230.2z"/>
	</g>
</g>
<g id="Layer_2" display="none">
	<path display="inline" fill="#3C589E" d="M334.8,572.8V316.9h-67.5v-92.3h67.5v-78.8c0-61.9,39.8-118.6,132.2-118.6
		c37.5,0,65.2,3.8,65.2,3.8l-2.3,86.2c0,0-28.1-0.5-59.1-0.5c-33.3,0-38.4,15.5-38.4,40.8V225h100.3l-4.2,92.3h-95.6v255.9
		L334.8,572.8z"/>
</g>
</svg>
