<?xml version="1.0" encoding="utf-8"?>
<!-- Generator: Adobe Illustrator 18.1.1, SVG Export Plug-In . SVG Version: 6.00 Build 0)  -->
<svg xmlns="http://www.w3.org/2000/svg" xmlns:xlink="http://www.w3.org/1999/xlink" version="1.1" id="Layer_1" x="0px" y="0px" viewBox="0 0 1000 5000" enable-background="new 0 0 1000 1500" xml:space="preserve">


<rect x="0" y="0" width="92.4" height="5000" style="fill: #EC4624;stroke-width: 0;" rx="20" ry="20"/>
<rect x="907.6" y="0" width="92.4" height="5000" style="fill: #EC4624;stroke-width: 0;" rx="20" ry="20"/>
<rect x="92.4" y="50" fill="#F4F4F4" width="815.2" height="4900"/>
	<g>
		<rect x="114" y="50" fill="#BFBFBF" width="19" height="4900"/>
		<rect x="161.3" y="50" fill="#BFBFBF" width="19" height="4900"/>
		<rect x="208.7" y="50" fill="#BFBFBF" width="19" height="4900"/>
		<rect x="256" y="50" fill="#BFBFBF" width="19" height="4900"/>
		<rect x="303.3" y="50" fill="#BFBFBF" width="19" height="4900"/>
		<rect x="350.7" y="50" fill="#BFBFBF" width="19" height="4900"/>
		<rect x="398" y="50" fill="#BFBFBF" width="19" height="4900"/>
		<rect x="445.3" y="50" fill="#BFBFBF" width="19" height="4900"/>
		<rect x="492.7" y="50" fill="#BFBFBF" width="19" height="4900"/>
		<rect x="540" y="50" fill="#BFBFBF" width="19" height="4900"/>
		<rect x="587.3" y="50" fill="#BFBFBF" width="19" height="4900"/>
		<rect x="634.7" y="50" fill="#BFBFBF" width="19" height="4900"/>
		<rect x="682" y="50" fill="#BFBFBF" width="19" height="4900"/>
		<rect x="729.3" y="50" fill="#BFBFBF" width="19" height="4900"/>
		<rect x="776.7" y="50" fill="#BFBFBF" width="19" height="4900"/>
		<rect x="824" y="50" fill="#BFBFBF" width="19" height="4900"/>
		<rect x="871.3" y="50" fill="#BFBFBF" width="19" height="4900"/>
	</g>
</svg>
