<?xml version="1.0" encoding="utf-8"?>
<!-- Generator: Adobe Illustrator 18.0.0, SVG Export Plug-In . SVG Version: 6.00 Build 0)  -->
<!DOCTYPE svg PUBLIC "-//W3C//DTD SVG 1.0//EN" "http://www.w3.org/TR/2001/REC-SVG-20010904/DTD/svg10.dtd">
<svg version="1.0" id="Layer_1" xmlns="http://www.w3.org/2000/svg" xmlns:xlink="http://www.w3.org/1999/xlink" x="0px" y="0px"
	 viewBox="0 0 595.9 600" enable-background="new 0 0 595.9 600" xml:space="preserve">
<g>
	<g>
		<path fill="#FFFFFF" d="M498.5,236.1c-15.1,0-29.7,0-44.7,0c0.1-1.3,0.1-2.7,0.3-4.1c1.8-13.5,2.1-26.8-0.9-40.2
			c-3.3-14.8-10-27.8-20.4-38.8c-16.4-17.6-36.9-27.7-59.9-33.2c-17.9-4.3-36-5.2-54.2-3.3c-36,3.8-68.1,17.1-96.7,39.2
			c-21.6,16.7-37.8,37.5-47.6,63.1c-3.5,9.2-5.8,18.6-6.4,28.6c-0.7,11.2-0.9,22.3,1.6,33.4c2.8,12.4,8.2,23.5,16.2,33.3
			c17.9,22,41.7,34,69,40c3.7,0.8,7.6,1.2,12,1.9c8-37.5,15.9-74.7,23.9-112.6c-1.5,0-2.9,0-4.3,0c-32.7,0-65.5,0-98.2,0.1
			c-3.3,0-4.3-0.9-4-4.1c0.3-3.2,0.1-6.5,0.1-10.2c36.5,0,72.8,0,109.3,0c1.3-5.7,2.6-11,3.7-16.4c1.7-8.2,3.4-16.4,5.1-24.6
			c2.4-11.7,4.9-23.4,7.3-35.2c0.5-2.6,1-5.2,1.8-7.7c0.3-1,1.6-2.5,2.4-2.5c11.2-0.2,22.4-0.1,34.1-0.1c-1.6,7.6-3.1,14.7-4.5,21.8
			c-3.5,16.9-7.1,33.7-10.6,50.5c-0.8,3.9-1.7,7.7-2.7,11.5c-0.5,2.1,0,2.9,2.3,3.2c10.7,1.5,21.4,2.9,32,4.9
			c24,4.5,45.6,14.7,65.5,28.5c17.6,12.3,31.3,28,37.9,48.7c2.8,8.7,3.6,18,4.8,27.2c0.6,4.9,0.2,9.9-0.1,14.8c-0.1,1.1-1.6,3-2.4,3
			c-13.9,0.2-27.8,0.1-41.6,0c-0.1,0-0.2-0.1-0.7-0.6c0.1-1.8,0.3-3.9,0.5-6.1c2-28.7-6-53.8-27.4-73.9
			c-11.8-11.1-25.6-18.9-40.8-24.5c-10.1-3.7-20.4-6-31-7.3c-2.4-0.3-3,0.7-3.4,2.5c-4.8,22.7-9.7,45.4-14.5,68.1
			c-2.6,12.3-5.2,24.6-7.8,36.9c-0.3,1.5-0.4,3.1-0.6,5c34.7,0,69.2,0,103.7,0c0,5,0,9.5,0,14.5c-1.4,0-2.9,0-4.3,0
			c-32.9,0-65.7,0.1-98.6,0c-3.2,0-4.4,0.6-5.1,4.1c-2.9,14.8-6.3,29.6-9.5,44.4c-2.5,11.7-5.1,23.4-7.5,35.2
			c-0.5,2.4-1.4,2.9-3.5,2.9c-10.6-0.1-21.3,0-32.8,0c6.1-28.9,12.2-57.8,18.3-86.9c-7.4-1.1-14.5-1.8-21.4-3.3
			c-11.5-2.6-23.1-5.1-34.3-9c-16.4-5.7-31.8-13.9-45.7-24.6c-16-12.4-28.5-27.5-34.8-47.1c-4-12.5-5.4-25.3-4.2-38.4
			c2.8-29.1,15.5-53.5,34.9-74.8c19.7-21.7,44.1-36.7,70.5-48.8c17.2-7.9,35-14,53.5-17.8c12-2.5,24.2-4.3,36.3-5.3
			c12.3-1,24.9-1.7,37.2-0.7c15.4,1.2,30.7,3,45.7,7.4c20.2,5.9,39.2,14.3,56.4,26.5c18.7,13.4,32.8,30.4,39.2,53
			c4,14.2,4.6,28.7,2,43.2C498.5,232.7,498.6,234.1,498.5,236.1 M469,372.2c-6.5,20.8-16.9,38.6-31.3,54c-21,22.6-46.7,38.4-74.7,50.6c-15.8,6.9-32.1,12.4-49,16
			c-10.2,2.1-20.5,3.8-30.9,4.7c-12.7,1.1-25.5,1.6-38.2,1.4c-9.7-0.2-19.3-1.6-28.9-3c-13.6-2-26.9-5.6-39.7-10.6
			c-23.5-9.2-44.8-21.5-60.8-41.5c-10.8-13.5-17.4-28.9-19.2-46.2c-1.1-10.5-0.9-20.9,0.9-31.3c0.2-1,1.7-2.5,2.6-2.6
			c13.5-0.2,27.1-0.1,40.6-0.1c0.4,0,0.9,0.3,1.4,0.4c-0.5,5.1-1.1,10-1.5,15c-1.4,22.1,3,42.7,16.4,60.8
			c10.3,13.9,23.8,24,39.3,31.5c12.4,6,25.5,10.1,39,11.4c13.8,1.3,27.9,0.6,41.8,0.3c13-0.4,25.5-3.6,37.9-7.6
			c20.1-6.4,38.5-15.9,55.4-28.4c17.9-13.2,32.8-29.1,43-49c3.7-7.3,6.3-15.2,9.5-22.7c0.6-1.3,2.1-3,3.2-3.1
			C440.1,372.1,454.4,372.2,469,372.2z"/>
	</g>
	<g>
		<path fill="#FFFFFF" d="M298,597.9c-164.3,0-298-133.7-298-298C0,135.6,133.7,2,298,2s298,133.7,298,298
			C595.9,464.2,462.3,597.9,298,597.9z M298,27.3c-150.3,0-272.7,122.3-272.7,272.7c0,150.3,122.3,272.7,272.7,272.7
			c150.3,0,272.7-122.3,272.7-272.7C570.6,149.6,448.3,27.3,298,27.3z"/>
	</g>
</g>
</svg>
