<?xml version="1.0" encoding="utf-8"?>
<!-- Generator: Adobe Illustrator 18.0.0, SVG Export Plug-In . SVG Version: 6.00 Build 0)  -->
<!DOCTYPE svg PUBLIC "-//W3C//DTD SVG 1.0//EN" "http://www.w3.org/TR/2001/REC-SVG-20010904/DTD/svg10.dtd">
<svg version="1.0" id="Layer_1" xmlns="http://www.w3.org/2000/svg" xmlns:xlink="http://www.w3.org/1999/xlink" x="0px" y="0px"
	 viewBox="0 0 800 477.5" enable-background="new 0 0 800 477.5" xml:space="preserve">
<path fill="#FFFFFF" d="M715.2,84h-70.4l3.2-84H483.1H165.2H0.4L13,332.6c0,79.7,65.2,144.9,144.9,144.9h7.4h317.9h7.4
	c70.6,0,129.7-51.2,142.3-118.2h82.4c46.6,0,84.5-37.9,84.5-84.5V168.5C799.7,122,761.8,84,715.2,84z M743.4,274.8
	c0,15.5-12.6,28.2-28.2,28.2h-78.7l6.1-162.6h72.5c15.5,0,28.2,12.6,28.2,28.2V274.8z"/>
</svg>
