<?xml version="1.0" encoding="utf-8"?>
<!-- Generator: Adobe Illustrator 18.0.0, SVG Export Plug-In . SVG Version: 6.00 Build 0)  -->
<!DOCTYPE svg PUBLIC "-//W3C//DTD SVG 1.0//EN" "http://www.w3.org/TR/2001/REC-SVG-20010904/DTD/svg10.dtd">
<svg version="1.0" id="Layer_1" xmlns="http://www.w3.org/2000/svg" xmlns:xlink="http://www.w3.org/1999/xlink" x="0px" y="0px"
	 viewBox="0 0 298.6 600" enable-background="new 0 0 298.6 600" xml:space="preserve">
<g>
	<path fill="#CCCCCC" d="M149.3,576.2c0,0-137.9-14.8-149.3-21.6c2.2,7.5,25,15.8,31.4,30.3c4.7,10.7,72.5,14.8,117.9,14.8
		s113.2-4.1,117.9-14.8c6.4-14.5,29.2-22.9,31.4-30.3C287.2,561.4,149.3,576.2,149.3,576.2z"/>
	<path fill="#EFEFF0" d="M149.3,0.9c0,0-88.5-1.4-123.5,5.2L26,32.5c0,0,26.7-3.8,123.3-3.8s123.3,3.8,123.3,3.8l0.3-26.4
		C237.8-0.6,149.3,0.9,149.3,0.9z"/>
	<path fill="#E32227" d="M277.2,54.5c-6.4-9.8-6.4-23.2-6.4-23.2c-39.9-4.1-121.5-2.8-121.5-2.8s-81.6-1.2-121.5,2.8
		c0,0,0,13.4-6.4,23.2C15,64.3,0,87.8,0,102.2c0,14.5,0,452.3,0,452.3s2,13,48.4,16.1s63.3,5.9,100.9,5.9s54.5-2.8,100.9-5.9
		s48.4-16.1,48.4-16.1s0-437.8,0-452.3C298.6,87.8,283.5,64.3,277.2,54.5z"/>
	<path fill="#F4F4F4" d="M25.8,567.8c0,0,221.4-134.4,221.4-320.5c0-181.1-59.7-219.1-59.7-219.1h-22.6c0,0,74.3,46.9,74.3,220
		C239.2,429.1,0,552.3,0,554.5S8.3,565.5,25.8,567.8z"/>
</g>
</svg>
