<?xml version="1.0" encoding="utf-8"?>
<!-- Generator: Adobe Illustrator 18.0.0, SVG Export Plug-In . SVG Version: 6.00 Build 0)  -->
<!DOCTYPE svg PUBLIC "-//W3C//DTD SVG 1.0//EN" "http://www.w3.org/TR/2001/REC-SVG-20010904/DTD/svg10.dtd">
<svg version="1.0" id="Layer_1" xmlns="http://www.w3.org/2000/svg" xmlns:xlink="http://www.w3.org/1999/xlink" x="0px" y="0px"
	 viewBox="0 0 800 600" enable-background="new 0 0 800 600" xml:space="preserve">
<g>
	<path fill="#FFFFFF" d="M290.9,350.9c-26.4-21.9-31.5-48.3-16.1-79.8c-10.3-0.6-19.9-1.3-29.6-1.9c-36-3.9-70.1-14.8-96.5-41.8
		c-30.2-30.2-40.5-67.6-34.1-108.7c7.7-50.8,39.2-83.6,85.6-102.9c30.2-12.9,62.4-16.1,95.2-15.4c58.5,0,117.1,0,175.6,0
		c1.3,0,3.2,0,5.1,0c0,1.3,0,1.9-0.6,1.9c-12.2,12.2-25.1,24.4-37.3,36.7c-1.9,1.3-5.1,1.9-7.1,1.9c-14.2,0-27.7,0-43.8,0
		c2.6,1.9,3.9,3.2,5.1,3.9c26.4,17.4,40.5,42.5,45.7,72.7c8.4,45.7-9.7,81.1-43.8,110c-11.6,9.7-23.2,18-33.5,28.3
		c-17.4,17.4-17.4,35.4,0,53.4c3.2,3.2,6.4,7.1,10.3,9.7c12.2,9.7,24.4,18.7,36.7,27.7c20.6,14.8,39.9,30.9,54.7,51.5
		c11.6,16.1,17.4,34.1,19.3,53.4c4.5,52.8-21.2,89.4-63.7,115.8c-30.9,19.3-65.6,27.7-102.3,31.5c-33.5,3.9-66.9,3.2-100.4-1.9
		c-38.6-5.8-74.6-16.7-106.2-40.5C57.3,516.9,63.1,453.2,94,414.6c18-22.5,42.5-36,68.8-45c36.7-12.9,74.6-16.7,112.6-17.4
		c5.1,0,9.7,0,14.8,0C290.2,351.5,290.2,351.5,290.9,350.9z M278,569c5.8-0.6,14.8-0.6,23.2-1.3c27.7-2.6,54.7-9,78.5-25.1
		c29-19.3,43.1-52.1,36-86.2c-5.8-27.7-23.2-47.6-46.3-61.1c-38-22.5-79.1-26.4-121.6-19.3c-30.2,5.1-57.3,17.4-79.8,38.6
		c-21.2,21.2-30.9,45.7-23.2,75.9c5.8,21.9,19.3,39.2,38,52.1C209.8,561.9,241.3,569,278,569z M181.5,118.6
		c1.9,12.2,2.6,24.4,5.8,36c14.2,48.3,44.4,81.1,95.2,90.1c38.6,7.1,70.8-14.8,79.8-52.8c5.8-23.8,3.2-47-3.2-69.5
		c-10.3-34.7-28.3-63.7-60.5-82.4c-34.7-19.9-75.9-12.2-99.1,18.7C187.3,76.2,182.1,96.1,181.5,118.6z"/>
	<path fill="#FFFFFF" d="M598.4,8.6c14.8,0,29,0,43.8,0c0,9,0,17.4,0,25.7c0,15.4,0,30.2,0,45.7c0,9.7,0,9.7,9.7,9.7
		c23.2,0,46.3,0,70.1,0c2.6,0,5.1,0,7.7,0c0,13.5,0,26.4,0,39.9c-7.1,0-14.2,0-21.2,0c-19.9,0-39.2,0-59.2,0c-5.1,0-7.1,1.3-7.1,7.1
		c0,22.5,0,45,0,66.9c0,1.9,0,4.5-0.6,7.1c-14.2,0-28.3,0-43.1,0c0-27,0-53.4,0-81.1c-29,0-57.9,0-86.9,0c0-13.5,0-26.4,0-39.9
		c28.3,0,57.3,0,86.2,0C598.4,62.6,598.4,36.3,598.4,8.6z"/>
</g>
</svg>
