<?xml version="1.0" encoding="utf-8"?>
<!-- Generator: Adobe Illustrator 18.0.0, SVG Export Plug-In . SVG Version: 6.00 Build 0)  -->
<!DOCTYPE svg PUBLIC "-//W3C//DTD SVG 1.0//EN" "http://www.w3.org/TR/2001/REC-SVG-20010904/DTD/svg10.dtd">
<svg version="1.0" id="Layer_1" xmlns="http://www.w3.org/2000/svg" xmlns:xlink="http://www.w3.org/1999/xlink" x="0px" y="0px"
	 viewBox="0 0 747.2 600" enable-background="new 0 0 747.2 600" xml:space="preserve">
<g>
	<g>
		<path fill="#EFEFF0" d="M728.9,511.3H18.3C8.2,511.3,0,503,0,493V18.6C0,8.6,8.2,0.3,18.3,0.3h710.6c10.1,0,18.3,8.2,18.3,18.3
			V493C747.2,503,739,511.3,728.9,511.3z"/>
		<path fill="#131013" d="M728.9,0.3H18.3C8.2,0.3,0,8.6,0,18.6v425.2h747.2V18.6C747.2,8.6,739,0.3,728.9,0.3z"/>
		<rect x="31.9" y="30.3" fill="#16BDC4" width="683.4" height="385.3"/>
		<path fill="#C1C1C1" d="M486.3,592.8c-2.6-3.5-22-16.9-28.8-29.5c-6.8-12.7-8.4-52-8.4-52h-75.5h-75.5c0,0-1.6,39.4-8.4,52
			s-26.3,26-28.8,29.5c-2.6,3.5-1.2,7.3,3.8,7.3c4.9,0,109,0,109,0s104.1,0,109,0S488.9,596.4,486.3,592.8z"/>
		<path fill="#010101" d="M383.6,477c0,5.3,4.6,7,4.7,7c0,0.1-0.7,2.5-2.4,4.9c-1.4,2.1-3,4.2-5.3,4.3c-2.3,0-3.1-1.4-5.7-1.4
			c-2.7,0-3.5,1.3-5.7,1.4c-2.3,0.1-4-2.3-5.5-4.4c-3-4.3-5.3-12.2-2.2-17.5c1.5-2.6,4.2-4.3,7.2-4.4c2.2,0,4.4,1.5,5.7,1.5
			c1.4,0,3.9-1.9,6.7-1.6c1.1,0,4.3,0.5,6.4,3.4C387.1,470.5,383.5,472.6,383.6,477 M379.2,464.1c1.2-1.5,2-3.5,1.8-5.6
			c-1.8,0.1-3.9,1.2-5.1,2.6c-1.1,1.3-2.1,3.4-1.8,5.4C376,466.7,378,465.5,379.2,464.1"/>
		<g>
			<defs>
				<rect id="SVGID_1_" x="31.9" y="30.3" width="683.4" height="385.3"/>
			</defs>
			<clipPath id="SVGID_2_">
				<use xlink:href="#SVGID_1_"  overflow="visible"/>
			</clipPath>
			<ellipse clip-path="url(#SVGID_2_)" fill="#4BB749" cx="543.4" cy="453.9" rx="566.1" ry="157.8"/>
		</g>
		<path fill="#FFFFFF" d="M214.6,94.6c-0.5,0-1,0-1.6,0.1c-1-14.3-12.9-25.5-27.4-25.5c-12.3,0-22.7,8.1-26.2,19.3
			c-1-0.2-1.9-0.3-3-0.3c-9.9,0-18,8.1-18,18s8.1,18,18,18c5,0,9.6-2.1,12.9-5.4c4.6,3.4,10.2,5.4,16.3,5.4c6.5,0,12.4-2.2,17.1-6
			c2.7,3.6,7,6,11.9,6c8.2,0,14.8-6.6,14.8-14.8C229.4,101.2,222.8,94.6,214.6,94.6z"/>
		<path fill="#FFFFFF" d="M647.2,149.6c-0.5,0-1,0-1.6,0.1c-1-14.3-12.9-25.5-27.4-25.5c-12.3,0-22.7,8.1-26.2,19.3
			c-1-0.2-1.9-0.3-3-0.3c-9.9,0-18,8.1-18,18s8.1,18,18,18c5,0,9.6-2.1,12.9-5.4c4.6,3.4,10.2,5.4,16.3,5.4c6.5,0,12.4-2.2,17.1-6
			c2.7,3.6,7,6,11.9,6c8.2,0,14.8-6.6,14.8-14.8C662,156.2,655.4,149.6,647.2,149.6z"/>
	</g>
	<rect x="91.2" y="583.5" fill="#EFEFF0" width="537.5" height="16.6"/>
</g>
</svg>
