<?xml version="1.0" encoding="utf-8"?>
<!-- Generator: Adobe Illustrator 18.0.0, SVG Export Plug-In . SVG Version: 6.00 Build 0)  -->
<!DOCTYPE svg PUBLIC "-//W3C//DTD SVG 1.0//EN" "http://www.w3.org/TR/2001/REC-SVG-20010904/DTD/svg10.dtd">
<svg version="1.0" id="Layer_1" xmlns="http://www.w3.org/2000/svg" xmlns:xlink="http://www.w3.org/1999/xlink" x="0px" y="0px"
	 viewBox="0 0 362 600" enable-background="new 0 0 362 600" xml:space="preserve">
<g>
	<g>
		<polygon fill="#EFB097" points="7,23.9 18.6,38.8 30.3,53.8 20.9,57.7 11.4,61.5 9.3,42.7 		"/>
		<polygon fill="#191919" points="7,23.9 9.5,27.1 12.1,30.3 10,31.2 8,32 7.5,27.9 		"/>
		
			<rect x="72" y="47.6" transform="matrix(0.9255 -0.3786 0.3786 0.9255 -73.2551 44.73)" fill="#CE2829" width="10.2" height="322"/>
		
			<rect x="81.5" y="43.7" transform="matrix(0.9255 -0.3786 0.3786 0.9255 -71.1506 48.0624)" fill="#191919" width="10.2" height="322.4"/>
	</g>
	<g>
		
			<rect x="172.6" y="59.2" transform="matrix(0.9414 0.3374 -0.3374 0.9414 85.0206 -48.7674)" fill="#F9F9FA" width="20.4" height="322"/>
		<path fill="#4254A4" d="M260.1,15.1c-7.1-2.6-14.5-0.3-16.4,5L211.1,111l22.6,8.1l-13.3,37.2l3.3,1.2l13.3-37.2l32.6-90.9
			C271.5,24,267.2,17.7,260.1,15.1z"/>
	</g>
	<g>
		
			<rect x="284.5" y="75.2" transform="matrix(0.9912 0.1322 -0.1322 0.9912 33.8254 -36.8899)" opacity="0.25" fill="#F9F9FA" width="20.4" height="322"/>
		
			<rect x="292.8" y="38.9" transform="matrix(-0.9912 -0.1322 0.1322 -0.9912 562.662 474.0464)" fill="#2B348C" width="8.5" height="359"/>
		<path fill="#F9F9FA" d="M338.1,29c1.9-14.4-2.6-26.9-10.1-27.9c-7.5-1-15.2,9.9-17.1,24.3c-0.1,0.6-0.1,1.2-0.2,1.9
			c0,0.1-0.1,0.2-0.1,0.4l-12.8,95.8l23.7,3.2l-5.2,39.2l3.5,0.5l5.2-39.2l12.8-95.8c0-0.1,0-0.2,0-0.4
			C338,30.2,338.1,29.6,338.1,29z"/>
	</g>
	<polygon fill="#191919" points="329.9,574.9 329.9,559.2 314.2,559.2 314.2,166.4 50.2,166.4 50.2,559.2 34.5,559.2 34.5,574.9 
		7,574.9 7,600 357.4,600 357.4,574.9 	"/>
</g>
</svg>
