<?xml version="1.0" encoding="utf-8"?>
<!-- Generator: Adobe Illustrator 18.1.1, SVG Export Plug-In . SVG Version: 6.00 Build 0)  -->
<svg version="1.1" id="Layer_1" xmlns="http://www.w3.org/2000/svg" xmlns:xlink="http://www.w3.org/1999/xlink" x="0px" y="0px"
	 viewBox="0 0 88.5 73.7" enable-background="new 0 0 88.5 73.7" xml:space="preserve">
<g>
	<path fill="#2D2E2D" d="M64.3,39c-0.7-6.1-1.5-19.2-1.8-23.7c-0.1-0.9-0.8-1.6-1.6-1.6h-3.3c-0.9,0-1.7,0.7-1.7,1.7V19
		c0,0.9-0.7,1.7-1.7,1.7h-9.9h-9.9c-0.9,0-1.7-0.7-1.7-1.7v-3.6c0-0.9-0.7-1.7-1.7-1.7H28c-0.9,0-1.6,0.7-1.6,1.6
		c-0.3,4.5-1.1,17.6-1.8,23.7c-0.8,7.1-4.9,13-10.8,15.7c-0.6,0.3-1,0.9-1,1.5v13.5c0,0.9,0.7,1.7,1.7,1.7h30h30
		c0.9,0,1.7-0.7,1.7-1.7V56.2c0-0.6-0.4-1.2-1-1.5C69.2,52,65.1,46.1,64.3,39z"/>
	<rect x="15.2" y="71.4" fill="#2D2E2D" width="11.5" height="2.4"/>
	<rect x="61.6" y="71.4" fill="#2D2E2D" width="11.5" height="2.4"/>
	<path fill="none" stroke="#010101" stroke-width="3" stroke-miterlimit="10" d="M4.4,14.5"/>
	<rect x="1.7" y="22.9" transform="matrix(0.866 -0.5 0.5 0.866 -11.4908 10.304)" fill="#FFFFFF" width="23.5" height="7.4"/>
	<rect x="63.5" y="22.9" transform="matrix(-0.866 -0.5 0.5 -0.866 127.0437 87.2301)" fill="#FFFFFF" width="23.5" height="7.4"/>
	<path fill="#2D2E2D" d="M84.1,9.2C61.1,0.2,56.1,0,44.2,0C34.6,0,27.4,0.2,4.4,9.2c0,0-6,9-4,18.6l20.2-11.7c0,0,0.2-5.1,5.7-5.1
		c4.9,0,15.7,0,17.8,0c0.2,0,0.3,0,0.3,0c2.1,0,12.9,0,17.8,0c5.5,0,5.7,5.1,5.7,5.1l20.2,11.7C90.1,18.3,84.1,9.2,84.1,9.2z"/>
	<path fill="#FFFFFF" d="M44.4,28.4c-8.8,0-15.9,7.1-15.9,15.9s7.1,15.9,15.9,15.9c8.8,0,15.9-7.1,15.9-15.9S53.2,28.4,44.4,28.4z
		 M44.4,54.1c-5.5,0-9.9-4.4-9.9-9.9s4.4-9.9,9.9-9.9c5.5,0,9.9,4.4,9.9,9.9S49.9,54.1,44.4,54.1z"/>
	<g>
		<circle fill="#2D2E2D" cx="50.9" cy="33" r="1.7"/>
		<circle fill="#2D2E2D" cx="44.4" cy="31.3" r="1.7"/>
		<circle fill="#2D2E2D" cx="38" cy="33" r="1.7"/>
		<circle fill="#2D2E2D" cx="33.2" cy="37.8" r="1.7"/>
		<circle fill="#2D2E2D" cx="31.5" cy="44.2" r="1.7"/>
		<circle fill="#2D2E2D" cx="33.2" cy="50.7" r="1.7"/>
		<circle fill="#2D2E2D" cx="38" cy="55.4" r="1.7"/>
		<circle fill="#2D2E2D" cx="44.4" cy="57.2" r="1.7"/>
		<circle fill="#2D2E2D" cx="50.9" cy="55.4" r="1.7"/>
		<circle fill="#2D2E2D" cx="55.6" cy="50.7" r="1.7"/>
	</g>
	<polygon fill="#EE2424" points="61.7,48.5 57.8,46.2 61.7,43.9 	"/>
</g>
</svg>
